<?xml version="1.0" encoding="UTF-8" standalone="no"?>
<!DOCTYPE svg PUBLIC "-//W3C//DTD SVG 1.1//EN" "http://www.w3.org/Graphics/SVG/1.1/DTD/svg11.dtd">
<svg width="100%" height="100%" viewBox="0 0 128 128" version="1.1" xmlns="http://www.w3.org/2000/svg" xmlns:xlink="http://www.w3.org/1999/xlink" xml:space="preserve" xmlns:serif="http://www.serif.com/" style="fill-rule:evenodd;clip-rule:evenodd;stroke-linejoin:round;stroke-miterlimit:2;">
    <g transform="matrix(3.00081,0,0,3.00081,3.87604,29.6148)">
        <path class="crayola-green" d="M22.905,3.822L7.692,3.822C6.659,3.822 5.821,2.984 5.821,1.95C5.821,0.916 6.659,0.078 7.692,0.078L22.904,0.078C23.938,0.078 24.776,0.916 24.776,1.95C24.776,2.984 23.939,3.822 22.905,3.822Z" style="fill-rule:nonzero;"/>
        <path class="deep-saffron" d="M29.143,3.822L38.07,3.822C39.103,3.822 39.941,2.984 39.941,1.95C39.941,0.916 39.103,0.078 38.07,0.078L29.143,0.078C28.11,0.078 27.272,0.916 27.272,1.95C27.272,2.984 28.11,3.822 29.143,3.822Z"/>
        <path class="amaranth-red" d="M22.329,16.491L1.934,16.491C0.9,16.491 0.062,15.653 0.062,14.62C0.062,13.586 0.9,12.748 1.934,12.748L22.329,12.748C23.363,12.748 24.201,13.586 24.201,14.62C24.201,15.653 23.363,16.491 22.329,16.491Z"/>
        <path class="deep-saffron" d="M21.37,22.825L7.692,22.825C6.659,22.825 5.821,21.987 5.821,20.953C5.821,19.92 6.659,19.082 7.692,19.082L21.37,19.082C22.403,19.082 23.241,19.92 23.241,20.953C23.241,21.987 22.403,22.825 21.37,22.825Z"/>
        <path class="deep-saffron" d="M28.567,16.491L32.311,16.491C33.345,16.491 34.183,15.653 34.183,14.62C34.183,13.586 33.345,12.748 32.311,12.748L28.567,12.748C27.534,12.748 26.696,13.586 26.696,14.62C26.696,15.653 27.534,16.491 28.567,16.491Z"/>
        <path class="crayola-green" d="M37.686,22.825L27.609,22.825C26.575,22.825 25.737,21.987 25.737,20.953C25.737,19.92 26.575,19.082 27.609,19.082L37.686,19.082C38.72,19.082 39.558,19.92 39.558,20.953C39.558,21.987 38.72,22.825 37.686,22.825Z"/>
        <path class="deep-saffron" d="M7.74,10.157L6.157,10.157C5.123,10.157 4.285,9.318 4.285,8.285C4.285,7.251 5.123,6.413 6.157,6.413L7.74,6.413C8.774,6.413 9.612,7.251 9.612,8.285C9.612,9.318 8.774,10.157 7.74,10.157Z"/>
        <path class="crayola-green" d="M13.996,10.157L32.311,10.157C33.345,10.157 34.183,9.318 34.183,8.285C34.183,7.251 33.345,6.413 32.311,6.413L13.996,6.413C12.962,6.413 12.124,7.251 12.124,8.285C12.124,9.318 12.962,10.157 13.996,10.157Z"/>
    </g>
    <style>
        .crayola-green { 
            fill: #12BC84; 
            fill-rule: nonzero;
        }
        .amaranth-red {
            fill: #D32C2C;
            fill-rule: nonzero;
        }
        .deep-saffron {
            fill: #FC943A;
            fill-rule: nonzero;
        }
        @media (prefers-color-scheme: dark) {
            .crayola-green { 
                fill: #808080; 
            }
            .deep-saffron {
                fill: #B3B3B3;
            }
            .amaranth-red {
                fill: #666666;
            }
        }
    </style>
</svg>
